# xmcd
#
# Track frame offsets:
# 150
# 22230
# 37995
# 65033
# 83516
# 102533
# 115706
# 128993
# 145499
# 167032
# 185624
# 200756
# 218236
# 241591
#
# Disc length: 3513 seconds
#
# Revision: 0
# Processed by: cddbd v1.4PL0 Copyright (c) Steve Scherf et al.
# Submitted via: Audion 2.6.0 (http://www.panic.com/audion/)
#
DISCID=cd0db70e
DTITLE=hui - jhh
DYEAR=1900
DGENRE=
TTITLE0=kjnj
TTITLE1=nb
TTITLE2=jk
TTITLE3=jknjk
TTITLE4=nj
TTITLE5=nj
TTITLE6=nj
TTITLE7=nkj
TTITLE8=nkj
TTITLE9=nkj
TTITLE10=nk
TTITLE11=jn
TTITLE12=nk
TTITLE13=jnk
EXTD=
EXTT0=
EXTT1=
EXTT2=
EXTT3=
EXTT4=
EXTT5=
EXTT6=
EXTT7=
EXTT8=
EXTT9=
EXTT10=
EXTT11=
EXTT12=
EXTT13=
PLAYORDER=
